<?xml version="1.0" standalone="no"?>
<!DOCTYPE svg PUBLIC "-//W3C//DTD SVG 20010904//EN"
 "http://www.w3.org/TR/2001/REC-SVG-20010904/DTD/svg10.dtd">
<svg version="1.0" xmlns="http://www.w3.org/2000/svg"
 width="101.000000pt" height="101.000000pt" viewBox="0 0 101.000000 101.000000"
 preserveAspectRatio="xMidYMid meet">
<metadata>
Created by potrace 1.11, written by Peter Selinger 2001-2013
</metadata>
<g transform="translate(0.000000,101.000000) scale(0.100000,-0.100000)"
fill="#000000" stroke="none">
<path d="M342 927 c-9 -10 -1 -23 32 -56 l44 -43 -22 -34 c-21 -33 -22 -33
-101 -34 -137 -2 -167 -13 -184 -69 -7 -23 -10 -122 -8 -273 2 -279 1 -276
103 -287 51 -5 59 -9 64 -31 4 -19 13 -25 37 -27 35 -3 47 8 52 47 1 6 59 10
151 10 l150 0 0 -24 c0 -43 80 -47 90 -5 5 20 13 25 55 29 63 7 91 22 102 57
5 16 9 134 8 265 -1 244 -6 278 -44 294 -13 6 -98 12 -201 14 -17 1 -32 11
-46 34 l-22 34 38 37 c36 35 45 65 23 72 -5 2 -31 -17 -57 -42 -43 -41 -52
-45 -96 -45 -43 0 -53 5 -97 45 -53 50 -56 51 -71 32z m478 -482 l0 -215 -310
0 -310 0 0 215 0 215 310 0 310 0 0 -215z"/>
<path d="M430 445 c0 -113 2 -125 18 -125 26 1 197 104 200 122 2 10 -28 34
-94 72 -53 31 -103 56 -110 56 -11 0 -14 -26 -14 -125z"/>
</g>
</svg>
